<?xml version="1.0" encoding="utf-8"?>
<!-- Generator: Adobe Illustrator 17.1.0, SVG Export Plug-In . SVG Version: 6.00 Build 0)  -->
<!DOCTYPE svg PUBLIC "-//W3C//DTD SVG 1.1//EN" "http://www.w3.org/Graphics/SVG/1.1/DTD/svg11.dtd">
<svg version="1.1" id="Layer_2" xmlns="http://www.w3.org/2000/svg" xmlns:xlink="http://www.w3.org/1999/xlink" x="0px" y="0px"
	 viewBox="0 0 509.5 49.5" enable-background="new 0 0 509.5 49.5" xml:space="preserve">
<g>
	<g>
		<path fill="none" d="M166.9,23.8c-2.2-7.3-9.1-12.7-17.1-12.7c0,0,0,0,0,0c-7,1.3-12.6,6.8-14.1,13.7c0.8,6.2,4.8,11.3,10.3,13.8
			c1.1,0.2,2.2,0.3,3.4,0.3C158.2,38.9,165.6,32.3,166.9,23.8z"/>
		<path fill="none" d="M163.6,40.4c-3,1.7-6.5,2.7-10.3,2.7c-3,0-5.8-0.6-8.3-1.8c-2.5-0.5-4.8-1.5-6.8-2.8c3.2,4.8,8.7,8,14.9,8
			c0,0,0,0,0,0C157.3,45.8,161,43.5,163.6,40.4z"/>
		<path fill="none" d="M159.2,39.3c3.1-1.1,5.8-2.9,7.8-5.4c0.3-1,0.5-2.1,0.6-3.2C165.7,34.3,162.8,37.3,159.2,39.3z"/>
		<path fill="none" d="M170.6,17.5c-0.6-2-1.5-3.9-2.7-5.5c0.6,1.2,1.1,2.5,1.4,3.8C169.8,16.3,170.2,16.9,170.6,17.5z"/>
		<path fill="none" d="M169,36.9c0.3-0.7,0.6-1.4,0.9-2.1c-0.1,0.1-0.2,0.3-0.3,0.4C169.4,35.8,169.2,36.4,169,36.9z"/>
		<path fill="none" d="M143.4,4.1c-6.5,2.2-11.3,8.1-12,15.2c0.6-1.1,1.3-2.2,2.1-3.2C135.2,10.9,138.8,6.6,143.4,4.1z"/>
		<path fill="none" d="M132.7,24.7c0-0.3,0-0.6-0.1-0.9c-0.2,0.8-0.4,1.6-0.5,2.4c0.1,0.3,0.2,0.6,0.3,0.8
			C132.5,26.3,132.6,25.5,132.7,24.7z"/>
		<path fill="none" d="M169.8,23.6c0.3,1.3,0.6,2.6,0.6,3.9c0.1-0.4,0.2-0.9,0.3-1.3c-0.2-1.2-0.5-2.4-0.9-3.6
			C169.9,23,169.9,23.3,169.8,23.6z"/>
		<path fill="none" d="M132.4,33.1c0.6,2.6,1.8,5,3.4,7.1c-1.2-1.9-2.2-4-2.8-6.2C132.8,33.7,132.6,33.4,132.4,33.1z"/>
		<path fill="none" d="M139.5,11c2.9-1.7,6.3-2.7,9.9-2.7c1.2-0.2,2.4-0.3,3.6-0.3c4.1,0,7.9,1.2,11.1,3.2c-1.8-2.8-4.4-5-7.5-6.4
			c-1.1-0.2-2.2-0.3-3.4-0.3C147.8,4.4,142.8,7,139.5,11z"/>
		<path fill="#2980B9" d="M163.6,40.4c-2.6,3.2-6.3,5.4-10.5,6.2c6.9,0,12.9-3.9,15.8-9.7c0.2-0.5,0.4-1.1,0.6-1.7
			C167.9,37.3,165.9,39,163.6,40.4z"/>
		<path fill="#2980B9" d="M166.9,23.8c0.1-0.9,0.2-1.8,0.2-2.8c0-1.4-0.2-2.7-0.5-4c-3.3-3.8-8.2-6.3-13.6-6.3
			c-1.1,0-2.3,0.1-3.3,0.3c0,0,0,0,0,0C157.9,11.1,164.7,16.4,166.9,23.8z"/>
		<path fill="#2980B9" d="M167.6,30.7c-0.1,1.1-0.3,2.2-0.6,3.2c1.6-1.8,2.8-4,3.5-6.4c-0.1-1.3-0.3-2.6-0.6-3.9
			C169.5,26.2,168.8,28.5,167.6,30.7z"/>
		<path fill="#2980B9" d="M135.8,40.2c-1.6-2-2.8-4.5-3.4-7.1c-1.4-2-2.5-4.3-3.2-6.7c-0.1,0.9-0.2,1.7-0.2,2.6
			c0,11.5,9.3,20.8,20.8,20.8c1.2,0,2.5-0.1,3.6-0.3c-0.1,0-0.2,0-0.3,0C145.9,49.4,139.5,45.7,135.8,40.2z"/>
		<path fill="#2980B9" d="M132.6,22.3c0-2.2,0.3-4.3,1-6.2c-0.8,1-1.5,2.1-2.1,3.2c-0.1,0.6-0.1,1.1-0.1,1.7c0,1.8,0.3,3.6,0.8,5.2
			c0.1-0.8,0.3-1.6,0.5-2.4C132.6,23.3,132.6,22.8,132.6,22.3z"/>
		<path fill="#2980B9" d="M149.5,8.2c-3.6,0.1-7,1-9.9,2.7c-1.3,1.5-2.3,3.3-3,5.2C139.6,12.1,144.2,9.2,149.5,8.2z"/>
		<path fill="#95A5A6" d="M169.8,23.6c0-0.3,0.1-0.7,0.1-1c-0.7-1.9-1.6-3.6-2.9-5.1C168.3,19.3,169.2,21.4,169.8,23.6z"/>
		<path fill="#95A5A6" d="M164.2,11.1c2,1.2,3.7,2.8,5.1,4.6c-0.3-1.3-0.8-2.6-1.4-3.8c-2.6-3.7-6.6-6.3-11.2-7.2
			C159.7,6.2,162.3,8.4,164.2,11.1z"/>
		<path fill="#95A5A6" d="M135.9,33.5c0.5,1.8,1.3,3.5,2.3,5c2.1,1.3,4.4,2.3,6.8,2.8C141.2,39.7,138.1,36.9,135.9,33.5z"/>
		<path fill="#95A5A6" d="M166.9,23.8c-1.3,8.6-8.7,15.1-17.7,15.1c-1.2,0-2.3-0.1-3.4-0.3c2.3,1,4.8,1.7,7.5,1.7c2,0,4-0.4,5.8-1
			c3.6-2,6.5-5,8.5-8.6c0.1-0.6,0.1-1.1,0.1-1.7C167.7,27.2,167.4,25.4,166.9,23.8z"/>
		<path fill="#95A5A6" d="M143.4,4.1c2.9-1.6,6.3-2.5,9.9-2.5c1.5,0,2.9,0.2,4.2,0.4c-2.6-1.1-5.4-1.8-8.3-1.8
			c-11.5,0-20.8,9.3-20.8,20.8c0,1.9,0.3,3.6,0.7,5.3c0.3-2.5,1.1-4.9,2.2-7C132.1,12.2,136.9,6.3,143.4,4.1z"/>
		<path fill="#95A5A6" d="M132.3,28.7c0-0.5,0-1.1,0.1-1.6c-0.1-0.3-0.2-0.6-0.3-0.8c-0.1,0.9-0.2,1.8-0.2,2.8
			c0,1.4,0.2,2.8,0.5,4.1c0.2,0.3,0.4,0.6,0.7,0.9C132.6,32.3,132.3,30.5,132.3,28.7z"/>
		<path fill="#185278" d="M131.9,29c0-0.9,0.1-1.9,0.2-2.8c-0.5-1.6-0.8-3.4-0.8-5.2c0-0.6,0-1.1,0.1-1.7c-1.1,2.2-1.9,4.5-2.2,7
			c0.7,2.4,1.7,4.7,3.2,6.7C132.1,31.7,131.9,30.4,131.9,29z"/>
		<path fill="#185278" d="M166.7,17c0.3,1.3,0.5,2.6,0.5,4c0,0.9-0.1,1.9-0.2,2.8c0.5,1.6,0.8,3.4,0.8,5.2c0,0.6,0,1.1-0.1,1.7
			c1.1-2.2,1.9-4.5,2.2-7c-0.6-2.2-1.5-4.3-2.8-6.1C166.9,17.3,166.8,17.2,166.7,17z"/>
		<path fill="#E74C3C" d="M132.6,23.8c0,0.3,0,0.6,0.1,0.9c0.3-1.4,0.7-2.7,1.2-4C133.4,21.7,133,22.7,132.6,23.8z"/>
		<path fill="#E74C3C" d="M135.6,24.8c-0.3,1.2-0.4,2.5-0.4,3.9c0,1.4,0.2,2.7,0.5,4c2.6,3,6.2,5.2,10.2,6
			C140.4,36.1,136.5,30.9,135.6,24.8z"/>
		<path fill="#E74C3C" d="M170.8,26.2c-0.1,0.4-0.2,0.9-0.3,1.3c0,0.5,0.1,1,0.1,1.5c0,2.2-0.3,4.3-1,6.3c0.1-0.1,0.2-0.3,0.3-0.4
			c0.7-1.9,1.1-4,1.1-6.2C171,27.8,170.9,27,170.8,26.2z"/>
		<path fill="#E74C3C" d="M167.9,11.9c1.2,1.7,2.1,3.5,2.7,5.5c1.7,2.6,2.8,5.6,3.2,8.8c0.3-1.3,0.4-2.6,0.4-4
			c0-10-7.1-18.4-16.5-20.3C162.1,4,165.7,7.5,167.9,11.9z"/>
		<path fill="#E74C3C" d="M133.5,16.1c1.6-2.1,3.7-3.8,6-5.1c3.3-4,8.3-6.5,13.8-6.5c1.2,0,2.3,0.1,3.4,0.3c-2.3-1-4.8-1.6-7.5-1.6
			c-2,0-4,0.4-5.8,1C138.8,6.6,135.2,10.9,133.5,16.1z"/>
		<path fill="#E74C3C" d="M159.2,39.3c-2.9,1.6-6.3,2.5-9.9,2.5c-1.5,0-2.9-0.2-4.2-0.4c2.6,1.1,5.4,1.8,8.3,1.8
			c3.7,0,7.2-1,10.3-2.7c1.5-1.9,2.7-4.1,3.4-6.5C164.9,36.3,162.2,38.2,159.2,39.3z"/>
		<path fill="#25262B" d="M136.5,16.2c0.7-1.9,1.7-3.7,3-5.2c-2.3,1.3-4.3,3.1-6,5.1c-0.6,2-1,4.1-1,6.2c0,0.5,0,1,0.1,1.5
			c0.3-1.1,0.7-2.1,1.3-3.1C134.6,19.1,135.5,17.6,136.5,16.2z"/>
		<path fill="#25262B" d="M163.6,40.4c2.3-1.3,4.3-3.1,6-5.1c0.6-2,1-4.1,1-6.3c0-0.5,0-1-0.1-1.5c-0.7,2.4-1.9,4.5-3.5,6.4
			C166.3,36.3,165.2,38.5,163.6,40.4z"/>
		<path fill="#863026" d="M143.4,4.1c1.8-0.6,3.8-1,5.8-1c2.7,0,5.2,0.6,7.5,1.6c4.6,0.9,8.6,3.5,11.2,7.2
			c-2.2-4.4-5.8-7.9-10.3-9.9c-1.4-0.3-2.8-0.4-4.2-0.4C149.8,1.6,146.4,2.5,143.4,4.1z"/>
		<path fill="#863026" d="M159.2,39.3c-1.8,0.6-3.8,1-5.8,1c-2.7,0-5.2-0.6-7.5-1.7c-4.1-0.8-7.6-2.9-10.2-6
			c0.1,0.3,0.1,0.6,0.2,0.9c2.2,3.4,5.4,6.2,9.1,7.8c1.4,0.3,2.8,0.4,4.2,0.4C152.8,41.8,156.2,40.9,159.2,39.3z"/>
		<path fill="#F3CF3F" d="M166.7,16.9c-0.5-2.1-1.3-4.1-2.5-5.8c-3.2-2-7-3.2-11.1-3.2c-1.2,0-2.5,0.1-3.6,0.3c0.1,0,0.2,0,0.3,0
			C156.7,8.2,162.9,11.7,166.7,16.9z"/>
		<path fill="#F3CF3F" d="M138.2,38.6c-2-1.2-3.7-2.8-5.1-4.6c0.6,2.2,1.5,4.3,2.8,6.2c3.3,4.1,8.3,6.7,14,6.7
			c1.1,0,2.3-0.1,3.3-0.3c0,0,0,0,0,0C146.9,46.6,141.4,43.4,138.2,38.6z"/>
		<path fill="#F3CF3F" d="M170,21c0,0.5,0,1.1-0.1,1.6c0.4,1.2,0.7,2.4,0.9,3.6c0.3-1.3,0.4-2.5,0.4-3.9c0-1.7-0.3-3.3-0.7-4.9
			c-0.4-0.6-0.8-1.2-1.3-1.8C169.8,17.4,170,19.2,170,21z"/>
		<path fill="#F3CF3F" d="M169.9,34.8c-0.3,0.7-0.6,1.4-0.9,2.1c-2.7,6.4-8.5,11.3-15.6,12.5c11.3-0.2,20.4-9.4,20.4-20.8
			c0-0.8-0.1-1.6-0.1-2.4C173.1,29.5,171.8,32.4,169.9,34.8z"/>
		<path fill="#F3CF3F" d="M149.8,11.1c-5.5,0-10.3,2.5-13.6,6.3c-0.4,1.6-0.7,3.2-0.7,4.9c0,0.8,0.1,1.6,0.2,2.4
			C137.2,17.8,142.7,12.4,149.8,11.1z"/>
		<path fill="#F3CF3F" d="M132.7,24.7c-0.2,0.8-0.2,1.6-0.3,2.4c0.6,1.6,1.3,3,2.3,4.4C133.7,29.3,133,27.1,132.7,24.7z"/>
		<path fill="#27682D" d="M169,36.9c-3,5.7-9,9.6-15.8,9.7c-1.1,0.2-2.2,0.3-3.3,0.3c-5.7,0-10.7-2.6-14-6.7
			c3.7,5.6,10.1,9.3,17.3,9.3c0.1,0,0.2,0,0.3,0C160.5,48.2,166.3,43.4,169,36.9z"/>
		<path fill="#27682D" d="M136.5,16.2c-0.2,0.4-0.3,0.8-0.4,1.3c3.3-3.9,8.2-6.3,13.6-6.3c1.1-0.2,2.2-0.3,3.3-0.3
			c5.4,0,10.3,2.5,13.6,6.3c0,0,0-0.1,0-0.1c-3.8-5.3-9.9-8.7-16.9-8.7c-0.1,0-0.2,0-0.3,0C144.2,9.2,139.6,12.1,136.5,16.2z"/>
		<path fill="#8D8528" d="M134.7,31.4c-1-1.3-1.7-2.8-2.3-4.4c0,0.5-0.1,1.1-0.1,1.6c0,1.8,0.3,3.6,0.7,5.3c1.4,1.8,3.2,3.4,5.1,4.6
			c-1-1.5-1.8-3.2-2.3-5C135.4,32.8,135,32.1,134.7,31.4z"/>
		<path fill="#8D8528" d="M167.1,17.5c1.2,1.5,2.2,3.3,2.9,5.1c0-0.5,0.1-1.1,0.1-1.6c0-1.8-0.3-3.6-0.7-5.3
			c-1.4-1.8-3.2-3.4-5.1-4.6c1.2,1.7,2,3.7,2.5,5.8C166.8,17.1,166.9,17.3,167.1,17.5z"/>
		<path fill="#19421F" d="M166.7,16.9c0,0,0,0.1,0,0.1c0.1,0.1,0.2,0.3,0.4,0.4C166.9,17.3,166.8,17.1,166.7,16.9z"/>
		<path fill="#DC3D0E" d="M135.6,32.6c-0.3-1.3-0.5-2.6-0.5-4c0-1.3,0.2-2.6,0.4-3.9c-0.1-0.8-0.2-1.6-0.2-2.4
			c0-1.7,0.3-3.4,0.7-4.9c-0.9,1-1.6,2.1-2.2,3.3c-0.6,1.2-1,2.6-1.2,4c0.3,2.4,1,4.6,2,6.7C135,31.8,135.3,32.2,135.6,32.6z"/>
		<path fill="#DC3D0E" d="M171.3,22.3c0,1.3-0.2,2.6-0.4,3.9c0.1,0.8,0.2,1.6,0.2,2.4c0,2.2-0.4,4.3-1.1,6.2
			c1.9-2.5,3.2-5.4,3.8-8.5c-0.4-3.2-1.5-6.2-3.2-8.8C171,19,171.3,20.7,171.3,22.3z"/>
		<path fill="#25262B" d="M133.9,20.7c0.6-1.2,1.4-2.3,2.2-3.3c0.1-0.4,0.3-0.8,0.4-1.3C135.5,17.6,134.6,19.1,133.9,20.7z"/>
		<path fill="#863026" d="M135.9,33.5c-0.1-0.3-0.2-0.6-0.2-0.9c-0.3-0.4-0.7-0.8-1-1.2C135,32.1,135.4,32.8,135.9,33.5z"/>
	</g>
	<path fill="#34495E" d="M0,25.5C0,10.8,11.3,1.7,23.7,1.7c13.8,0,23.7,10.8,23.7,23.3s-9.8,23.3-23.8,23.3C9.5,48.3,0,37.1,0,25.5
		L0,25.5z M11.5,24.9c0,6.9,4.7,13.3,12.4,13.3C32,38.2,36,30.8,36,25.1c0-5.8-3.9-13.3-12.2-13.3C15.8,11.8,11.5,18.6,11.5,24.9
		L11.5,24.9z"/>
	<path fill="#34495E" d="M96.7,30.6C94.1,41.3,84.9,48.3,74,48.3c-14.1,0-23.7-11.2-23.7-23.4c0-11.5,8.9-23.3,23.6-23.3
		c14.1,0,21.6,10.9,22.8,17.9h-12c-1.3-3.3-4.7-7.8-10.9-7.8c-7.7,0-12,6.7-12,13.1c0,6.8,4.6,13.4,12.1,13.4c7.2,0,10.1-6,10.8-7.6
		H96.7z"/>
	<path fill="#34495E" d="M106.5,12.6h-8.9V2.5h29.2v10.1H118v34.9h-11.5V12.6z"/>
	<path fill="#34495E" d="M193,2.5c8.3,0,11.4,1.3,13.8,3.3c3.5,2.9,5.3,7.3,5.3,11.9s-1.9,9.4-4.7,11.8c-3.1,2.6-6.1,3.9-13.1,3.9
		h-4.5v14.1h-11.5V2.5H193z M189.7,23.3h4.2c1.1,0,2.9,0,4.4-0.7c1.5-0.7,2.7-2.1,2.7-4.7s-1.3-3.9-2.9-4.6
		c-1.6-0.7-3.5-0.7-4.7-0.7h-3.8V23.3z"/>
	<path fill="#34495E" d="M226.7,2.5v27.2c0,1.5,0.1,3.6,0.8,5.4c0.8,1.8,2.2,3.2,5,3.2c2.9,0,4.3-1.3,5-2.9c0.7-1.7,0.7-3.9,0.7-5.6
		V2.5h11.5v27.2c0,7.5-1.6,10.9-4.5,13.8c-2.9,3-7,4.9-12.6,4.9c-3.3,0-9.2-0.8-12.9-4.8c-3.7-4.1-4.5-7.2-4.5-13.8V2.5H226.7z"/>
	<path fill="#34495E" d="M265.1,32.6c0,5.2,3.2,6.1,4.7,6.1c2.7,0,4.4-2.2,4.4-4.3c0-2.4-1.9-3.1-8.8-6c-3.2-1.3-11-4.4-11-12.9
		c0-9.1,8.2-13.8,15.7-13.8c6.2,0,14.9,3.2,15.1,14h-11.4c-0.2-1.5-0.6-4.4-4.1-4.4c-2,0-3.9,1.4-3.9,3.5c0,2.1,1.2,2.6,9.3,6.3
		c8.4,3.8,10.5,7.7,10.5,12.9c0,7.2-3.8,14.4-15.7,14.4c-11.8,0-16.5-6.9-16.2-15.7H265.1z"/>
	<g>
		<path fill="#34495E" d="M331.1,17.6c-0.6-1.1-1.4-2.1-2.4-3c-1.9-1.6-4.4-2.8-7.5-2.8c-5.6,0-12.3,4.2-12.3,13.1
			c0,9.4,6.7,13.5,12.3,13.5c2.9,0,5.2-0.7,7-2c1.8-1.2,3.1-3,3.7-5.2h-13.4v-9.2h26.7c0.2,3.2-0.1,8.5-2.1,12.9
			c-4.4,9.9-14.5,13.6-21.9,13.6c-13.6,0-23.9-10.6-23.9-23.6c0-13.4,10.8-23.1,24.1-23.1c10.8,0,20,7.2,22.5,15.9H331.1z"/>
		<path fill="#34495E" d="M385.6,25.5c0-14.7,11.3-23.8,23.7-23.8c13.8,0,23.7,10.8,23.7,23.3s-9.8,23.3-23.8,23.3
			C395.1,48.3,385.6,37.1,385.6,25.5L385.6,25.5z M397.1,24.9c0,6.9,4.7,13.3,12.4,13.3c8.1,0,12.1-7.4,12.1-13.2
			c0-5.8-3.9-13.3-12.2-13.3C401.4,11.7,397.1,18.5,397.1,24.9L397.1,24.9z"/>
		<path fill="#34495E" d="M448,2.5v27.2c0,1.5,0.1,3.6,0.8,5.4c0.8,1.8,2.2,3.2,5,3.2c2.9,0,4.3-1.3,5-2.9c0.7-1.7,0.7-3.9,0.7-5.6
			V2.5H471v27.2c0,7.5-1.6,10.9-4.5,13.8c-2.9,3-7,4.9-12.6,4.9c-3.3,0-9.2-0.8-12.9-4.8c-3.7-4.1-4.5-7.2-4.5-13.8V2.5H448z"/>
		<path fill="#34495E" d="M490.4,2.5c8.3,0,11.4,1.3,13.8,3.3c3.5,2.9,5.3,7.3,5.3,11.9s-1.9,9.4-4.7,11.8
			c-3.1,2.6-6.1,3.9-13.1,3.9h-4.5v14.1h-11.5V2.5H490.4z M487.2,23.3h4.2c1.1,0,2.9,0,4.4-0.7c1.5-0.7,2.7-2.1,2.7-4.7
			s-1.3-3.9-2.9-4.6c-1.6-0.7-3.5-0.7-4.7-0.7h-3.8V23.3z"/>
	</g>
	<path fill="#34495E" d="M385,47.7l-9-16.2c1-0.5,1.9-1.2,2.8-2c2.9-2.4,4.7-7.2,4.7-11.7s-1.8-8.5-5.3-11.4
		c-2.4-2-5.5-2.7-13.8-2.7H349v44h10v-14h6.5l7.7,14H385z M359,12.7h6c1.3,0,3.2-0.1,4.7,0.6c1.6,0.7,2.9,1.9,2.9,4.6
		c0,2.7-1.2,4.3-2.7,5c-1.5,0.7-3.3,0.8-4.4,0.8H359V12.7z"/>
</g>
</svg>
